# xmcd CD database file
#
# Track frame offsets:
#	150
#	17278
#	31798
#	46757
#	70675
#	86412
#	107036
#	120597
#	138848
#	155866
#	169366
#
# Disc length: 2513 seconds
#
# Revision: 4
# Processed by: cddbd v1.5.2PL0 Copyright (c) Steve Scherf et al.
# Submitted via: CDex 1.70beta3
#
DISCID=8009cf0b
DTITLE=椎名林檎 - 逆輸入 ～港湾局～
DYEAR=2014
DGENRE=J-Rock
TTITLE0=主演の女
TTITLE1=渦中の男
TTITLE2=プライベイト
TTITLE3=青春の瞬き
TTITLE4=真夏の脱獄者
TTITLE5=望遠鏡の外の景色
TTITLE6=決定的三分間
TTITLE7=カプチーノ
TTITLE8=雨傘
TTITLE9=日和姫
TTITLE10=幸先坂
EXTD=YEAR: 2014
EXTT0=
EXTT1=
EXTT2=
EXTT3=
EXTT4=
EXTT5=
EXTT6=
EXTT7=
EXTT8=
EXTT9=
EXTT10=
PLAYORDER=
